<svg width="20" height="20" viewBox="0 0 20 20" fill="none" xmlns="http://www.w3.org/2000/svg">
<path d="M6.45817 2.08301C6.45817 1.73783 6.17835 1.45801 5.83317 1.45801C5.48799 1.45801 5.20817 1.73783 5.20817 2.08301V3.39906C4.00873 3.4951 3.22131 3.73082 2.64281 4.30932C2.06432 4.88782 1.8286 5.67523 1.73255 6.87467H18.2671C18.1711 5.67523 17.9354 4.88782 17.3569 4.30932C16.7784 3.73082 15.9909 3.4951 14.7915 3.39906V2.08301C14.7915 1.73783 14.5117 1.45801 14.1665 1.45801C13.8213 1.45801 13.5415 1.73783 13.5415 2.08301V3.34376C12.9871 3.33301 12.3657 3.33301 11.6665 3.33301H8.33317C7.63398 3.33301 7.01256 3.33301 6.45817 3.34376V2.08301Z" fill="white"/>
<path fill-rule="evenodd" clip-rule="evenodd" d="M18.3332 9.99967C18.3332 9.30048 18.3332 8.67906 18.3224 8.12467H1.67726C1.6665 8.67906 1.6665 9.30048 1.6665 9.99967V11.6663C1.6665 14.809 1.6665 16.3804 2.64281 17.3567C3.61913 18.333 5.19047 18.333 8.33317 18.333H11.6665C14.8092 18.333 16.3805 18.333 17.3569 17.3567C18.3332 16.3804 18.3332 14.809 18.3332 11.6663V9.99967ZM11.6665 10.208C10.8611 10.208 10.2082 10.8609 10.2082 11.6663V13.333C10.2082 14.1384 10.8611 14.7913 11.6665 14.7913C12.4719 14.7913 13.1248 14.1384 13.1248 13.333V11.6663C13.1248 10.8609 12.4719 10.208 11.6665 10.208ZM11.6665 11.458C11.5514 11.458 11.4582 11.5513 11.4582 11.6663V13.333C11.4582 13.4481 11.5514 13.5413 11.6665 13.5413C11.7816 13.5413 11.8748 13.4481 11.8748 13.333V11.6663C11.8748 11.5513 11.7816 11.458 11.6665 11.458ZM8.98901 10.2556C9.22256 10.3523 9.37484 10.5802 9.37484 10.833V14.1663C9.37484 14.5115 9.09502 14.7913 8.74984 14.7913C8.40466 14.7913 8.12484 14.5115 8.12484 14.1663V12.3419L7.94178 12.525C7.6977 12.769 7.30197 12.769 7.0579 12.525C6.81382 12.2809 6.81382 11.8851 7.0579 11.6411L8.3079 10.3911C8.48664 10.2123 8.75547 10.1588 8.98901 10.2556Z" fill="white"/>
</svg>
