<svg width="25" height="24" viewBox="0 0 25 24" fill="none" xmlns="http://www.w3.org/2000/svg">
<path d="M20.1872 14.0931L20.3706 12.3884C20.4684 11.4789 20.533 10.8783 20.4823 10.4999L20.5 10.5C21.3284 10.5 22 9.82843 22 9C22 8.17157 21.3284 7.5 20.5 7.5C19.6716 7.5 19 8.17157 19 9C19 9.37466 19.1374 9.71724 19.3645 9.98013C19.0384 10.1814 18.6122 10.606 17.9705 11.2451L17.9705 11.2451C17.4762 11.7375 17.229 11.9837 16.9533 12.0219C16.8005 12.043 16.6449 12.0213 16.5038 11.9592C16.2492 11.847 16.0794 11.5427 15.7399 10.934L13.9505 7.7254C13.741 7.34987 13.5657 7.03557 13.4077 6.78265C14.056 6.45187 14.5 5.77778 14.5 5C14.5 3.89543 13.6046 3 12.5 3C11.3954 3 10.5 3.89543 10.5 5C10.5 5.77778 10.944 6.45187 11.5923 6.78265C11.4343 7.03559 11.259 7.34984 11.0495 7.7254L9.26006 10.934C8.92056 11.5427 8.75081 11.847 8.49621 11.9592C8.35514 12.0213 8.19947 12.043 8.0467 12.0219C7.77097 11.9837 7.52381 11.7375 7.0295 11.2451C6.38787 10.606 5.96156 10.1814 5.63553 9.98012C5.86264 9.71724 6 9.37466 6 9C6 8.17157 5.32843 7.5 4.5 7.5C3.67157 7.5 3 8.17157 3 9C3 9.82843 3.67157 10.5 4.5 10.5L4.51771 10.4999C4.46702 10.8783 4.53162 11.4789 4.62945 12.3884L4.8128 14.0931C4.91458 15.0393 4.99921 15.9396 5.10287 16.75H19.8971C20.0008 15.9396 20.0854 15.0393 20.1872 14.0931Z" fill="white"/>
<path d="M11.4121 21H13.5879C16.4239 21 17.8418 21 18.7879 20.1532C19.2009 19.7835 19.4623 19.1172 19.651 18.25H5.34896C5.53765 19.1172 5.79913 19.7835 6.21208 20.1532C7.15817 21 8.57613 21 11.4121 21Z" fill="white"/>
</svg>
