<svg width="20" height="20" viewBox="0 0 20 20" fill="none" xmlns="http://www.w3.org/2000/svg">
<path fill-rule="evenodd" clip-rule="evenodd" d="M2.88708 2.88714C1.66669 4.10752 1.66669 6.07171 1.66669 10.0001C1.66669 13.9285 1.66669 15.8926 2.88708 17.113C4.10746 18.3334 6.07165 18.3334 10 18.3334C13.9284 18.3334 15.8926 18.3334 17.113 17.113C18.3334 15.8926 18.3334 13.9285 18.3334 10.0001C18.3334 6.07171 18.3334 4.10752 17.113 2.88714C15.8926 1.66675 13.9284 1.66675 10 1.66675C6.07165 1.66675 4.10746 1.66675 2.88708 2.88714ZM13.3334 8.33341C14.2538 8.33341 15 7.58722 15 6.66675C15 5.74627 14.2538 5.00008 13.3334 5.00008C12.4129 5.00008 11.6667 5.74627 11.6667 6.66675C11.6667 7.58722 12.4129 8.33341 13.3334 8.33341ZM5.26745 10.9199C5.78753 10.4368 6.59995 10.4639 7.08667 10.9806L9.2929 13.3225C9.95912 14.0297 11.0497 14.125 11.8285 13.544C12.3394 13.1629 13.0509 13.2062 13.5118 13.6465L15.4016 15.452C15.6512 15.6904 16.0468 15.6814 16.2853 15.4318C16.5237 15.1822 16.5147 14.7866 16.2651 14.5482L14.3752 12.7427C13.4732 11.881 12.0809 11.7962 11.081 12.5421C10.8113 12.7434 10.4335 12.7104 10.2028 12.4654L7.99651 10.1235C7.03878 9.10682 5.44015 9.05347 4.41677 10.004L3.74135 10.6313C3.48844 10.8662 3.47384 11.2617 3.70875 11.5146C3.94366 11.7675 4.33912 11.7821 4.59203 11.5472L5.26745 10.9199Z" fill="white"/>
</svg>
