<svg width="25" height="24" viewBox="0 0 25 24" fill="none" xmlns="http://www.w3.org/2000/svg">
<path fill-rule="evenodd" clip-rule="evenodd" d="M3.96447 3.46447C2.5 4.92893 2.5 7.28595 2.5 12C2.5 16.714 2.5 19.0711 3.96447 20.5355C5.42893 22 7.78595 22 12.5 22C17.214 22 19.5711 22 21.0355 20.5355C22.5 19.0711 22.5 16.714 22.5 12C22.5 7.28595 22.5 4.92893 21.0355 3.46447C19.5711 2 17.214 2 12.5 2C7.78595 2 5.42893 2 3.96447 3.46447ZM5.96058 11.0833C6.33333 7.79988 9.12406 5.25 12.5096 5.25C14.4916 5.25 16.2702 6.12471 17.4775 7.50653C17.75 7.81846 17.7181 8.29226 17.4061 8.56479C17.0942 8.83733 16.6204 8.80539 16.3479 8.49347C15.4136 7.42409 14.041 6.75 12.5096 6.75C9.95215 6.75 7.83642 8.63219 7.47332 11.0833H7.83654C8.13998 11.0833 8.41353 11.2662 8.52955 11.5466C8.64558 11.8269 8.58122 12.1496 8.36651 12.364L7.19825 13.5307C6.90544 13.8231 6.43113 13.8231 6.13832 13.5307L4.97005 12.364C4.75534 12.1496 4.69099 11.8269 4.80701 11.5466C4.92304 11.2662 5.19658 11.0833 5.50002 11.0833H5.96058ZM17.8018 10.4693C18.0947 10.1769 18.569 10.1769 18.8618 10.4693L20.03 11.636C20.2448 11.8504 20.3091 12.1731 20.1931 12.4534C20.0771 12.7338 19.8035 12.9167 19.5001 12.9167H19.0395C18.6668 16.2001 15.876 18.75 12.4905 18.75C10.5085 18.75 8.72995 17.8753 7.52263 16.4935C7.2501 16.1815 7.28203 15.7077 7.59396 15.4352C7.90589 15.1627 8.37968 15.1946 8.65222 15.5065C9.58654 16.5759 10.9591 17.25 12.4905 17.25C15.048 17.25 17.1637 15.3678 17.5268 12.9167H17.1636C16.8601 12.9167 16.5866 12.7338 16.4705 12.4534C16.3545 12.1731 16.4189 11.8504 16.6336 11.636L17.8018 10.4693Z" fill="#FA5E03"/>
</svg>
